<svg width="100" height="106" viewBox="0 0 100 106" fill="none" xmlns="http://www.w3.org/2000/svg">
<g clip-path="url(#clip0_439_1082)">
<g filter="url(#filter0_d_439_1082)">
<path d="M87.3356 94.7362H86.0164V68.3979C87.3592 68.2785 88.4162 67.1636 88.4162 65.7892C88.4162 64.4148 87.3598 63.2999 86.0164 63.1804V36.8191C87.3592 36.6996 88.4162 35.5847 88.4162 34.2103C88.4162 32.8359 87.3598 31.721 86.0164 31.6015V5.26385H87.3356C88.7889 5.26385 89.9675 4.08527 89.9675 2.63193C89.9675 1.17858 88.7889 0 87.3356 0H83.3845H16.6152H12.6642C11.2108 0 10.0322 1.17858 10.0322 2.63193C10.0322 4.08527 11.2108 5.26385 12.6642 5.26385H13.9833V31.6021C12.6405 31.7215 11.5835 32.8364 11.5835 34.2108C11.5835 35.5852 12.6405 36.7001 13.9833 36.8196V63.1809C12.6405 63.3004 11.5835 64.4153 11.5835 65.7897C11.5835 67.1641 12.6405 68.279 13.9833 68.3985V94.7367H12.6642C11.2108 94.7367 10.0322 95.9153 10.0322 97.3686C10.0322 98.822 11.2108 100.001 12.6642 100.001H16.6152H83.3845H87.3356C88.7889 100.001 89.9675 98.822 89.9675 97.3686C89.9675 95.9153 88.7889 94.7362 87.3356 94.7362ZM70.3281 50.3103C70.3281 61.5191 61.209 70.6382 50.0001 70.6382C38.7913 70.6382 29.6722 61.5191 29.6722 50.3103C29.6722 39.1015 38.7913 29.9824 50.0001 29.9824C61.209 29.9824 70.3281 39.1015 70.3281 50.3103ZM23.7688 92.5953C23.7688 94.0487 22.5902 95.2273 21.1368 95.2273C19.6835 95.2273 18.5049 94.0487 18.5049 92.5953V71.3189C18.5049 69.8655 19.6835 68.6869 21.1368 68.6869C22.5902 68.6869 23.7688 69.8655 23.7688 71.3189V92.5953ZM23.7688 59.6063C23.7688 61.0596 22.5902 62.2382 21.1368 62.2382C19.6835 62.2382 18.5049 61.0596 18.5049 59.6063V39.1294C18.5049 37.676 19.6835 36.4974 21.1368 36.4974C22.5902 36.4974 23.7688 37.676 23.7688 39.1294V59.6063ZM23.7688 27.6284C23.7688 29.0817 22.5902 30.2603 21.1368 30.2603C19.6835 30.2603 18.5049 29.0817 18.5049 27.6284V7.19358C18.5049 5.74023 19.6835 4.56165 21.1368 4.56165C22.5902 4.56165 23.7688 5.74023 23.7688 7.19358V27.6284ZM59.3545 55.2915C59.3545 60.4495 55.1582 64.6459 50.0001 64.6459C44.8421 64.6459 40.6457 60.4495 40.6457 55.2915C40.6457 54.0776 40.8789 52.8901 41.339 51.7621C41.3463 51.7437 41.3537 51.7263 41.3616 51.7079L47.5856 37.3633C48.003 36.4011 48.9516 35.7789 50.0001 35.7789H50.0017C51.0508 35.7794 51.9993 36.4032 52.4157 37.366L58.7434 51.9942C58.7665 52.0474 58.7876 52.1016 58.8071 52.1558C59.1703 53.1759 59.3545 54.2308 59.3545 55.2915Z" fill="#AB4D74"/>
</g>
<circle cx="50" cy="50" r="23" fill="#AB4D74"/>
<path d="M58.282 48.4773L50 37L41.718 48.4773C38.2896 53.2284 40.1856 59.8842 45.688 62.152C47.0126 62.698 48.47 63 50 63C51.53 63 52.9874 62.698 54.3121 62.152C59.8145 59.8842 61.7104 53.2284 58.282 48.4773Z" fill="white"/>
</g>
<defs>
<filter id="filter0_d_439_1082" x="10.0322" y="0" width="87.9351" height="108" filterUnits="userSpaceOnUse" color-interpolation-filters="sRGB">
<feFlood flood-opacity="0" result="BackgroundImageFix"/>
<feColorMatrix in="SourceAlpha" type="matrix" values="0 0 0 0 0 0 0 0 0 0 0 0 0 0 0 0 0 0 127 0" result="hardAlpha"/>
<feOffset dx="4" dy="4"/>
<feGaussianBlur stdDeviation="2"/>
<feComposite in2="hardAlpha" operator="out"/>
<feColorMatrix type="matrix" values="0 0 0 0 0 0 0 0 0 0 0 0 0 0 0 0 0 0 0.5 0"/>
<feBlend mode="normal" in2="BackgroundImageFix" result="effect1_dropShadow_439_1082"/>
<feBlend mode="normal" in="SourceGraphic" in2="effect1_dropShadow_439_1082" result="shape"/>
</filter>
<clipPath id="clip0_439_1082">
<rect width="100" height="106" fill="white"/>
</clipPath>
</defs>
</svg>
