<svg width="88" height="96" viewBox="0 0 88 96" fill="none" xmlns="http://www.w3.org/2000/svg">
<g filter="url(#filter0_d_584_2)">
<circle cx="40" cy="46" r="40" fill="#AB4D74"/>
</g>
<path d="M39.34 64.42L38.92 68.62H36.82L37.24 64.54C36.36 64.54 35.26 64.42 33.94 64.18C32.62 63.94 31.34 63.5 30.1 62.86C28.9 62.22 27.86 61.32 26.98 60.16C26.14 59 25.72 57.5 25.72 55.66C25.72 55.06 25.96 54.54 26.44 54.1C26.96 53.62 27.52 53.38 28.12 53.38C28.68 53.38 29.16 53.58 29.56 53.98C30 54.34 30.22 54.84 30.22 55.48C30.22 56.64 29.54 57.22 28.18 57.22C28.02 57.22 27.84 57.22 27.64 57.22C27.48 57.18 27.3 57.14 27.1 57.1C27.34 58.34 27.86 59.34 28.66 60.1C29.5 60.86 30.42 61.46 31.42 61.9C32.46 62.34 33.5 62.64 34.54 62.8C35.62 62.96 36.56 63.04 37.36 63.04L38.98 47.02C37.54 45.94 36.22 44.9 35.02 43.9C33.86 42.9 32.86 41.88 32.02 40.84C31.18 39.76 30.54 38.62 30.1 37.42C29.66 36.22 29.44 34.9 29.44 33.46C29.44 30.7 30.46 28.56 32.5 27.04C34.58 25.48 37.56 24.6 41.44 24.4L41.74 20.98H43.96L43.66 24.4C46.46 24.56 48.72 25.16 50.44 26.2C52.16 27.24 53.02 28.48 53.02 29.92C53.02 31.72 52.48 33.14 51.4 34.18C50.32 35.18 49.02 35.68 47.5 35.68C45.86 35.68 44.78 35.26 44.26 34.42C45.06 34.42 45.78 34 46.42 33.16C47.1 32.32 47.44 31.14 47.44 29.62C47.44 27.58 46.1 26.32 43.42 25.84L41.92 40.36C43.04 41.12 44.18 41.86 45.34 42.58C46.5 43.3 47.5 43.96 48.34 44.56C49.82 45.64 50.98 46.9 51.82 48.34C52.66 49.74 53.08 51.34 53.08 53.14C53.08 54.98 52.72 56.58 52 57.94C51.32 59.26 50.36 60.38 49.12 61.3C47.88 62.18 46.42 62.88 44.74 63.4C43.1 63.92 41.3 64.26 39.34 64.42ZM39.76 39.1L41.26 25.78C39.7 26.02 38.32 26.66 37.12 27.7C35.92 28.7 35.32 30.1 35.32 31.9C35.32 34.46 36.8 36.86 39.76 39.1ZM39.52 62.74C41.4 62.26 42.76 61.36 43.6 60.04C44.44 58.72 44.86 57.32 44.86 55.84C44.86 53.32 43.58 50.92 41.02 48.64L39.52 62.74Z" fill="white"/>
<defs>
<filter id="filter0_d_584_2" x="0" y="6" width="88" height="88" filterUnits="userSpaceOnUse" color-interpolation-filters="sRGB">
<feFlood flood-opacity="0" result="BackgroundImageFix"/>
<feColorMatrix in="SourceAlpha" type="matrix" values="0 0 0 0 0 0 0 0 0 0 0 0 0 0 0 0 0 0 127 0" result="hardAlpha"/>
<feOffset dx="4" dy="4"/>
<feGaussianBlur stdDeviation="2"/>
<feComposite in2="hardAlpha" operator="out"/>
<feColorMatrix type="matrix" values="0 0 0 0 0 0 0 0 0 0 0 0 0 0 0 0 0 0 0.5 0"/>
<feBlend mode="normal" in2="BackgroundImageFix" result="effect1_dropShadow_584_2"/>
<feBlend mode="normal" in="SourceGraphic" in2="effect1_dropShadow_584_2" result="shape"/>
</filter>
</defs>
</svg>
