<svg width="84" height="90" viewBox="0 0 84 90" fill="none" xmlns="http://www.w3.org/2000/svg">
<g clip-path="url(#clip0_439_1091)">
<g filter="url(#filter0_d_439_1091)">
<path d="M67.9566 37.4802L42.0002 0L16.0441 37.4802C5.29913 52.9954 11.2413 74.7307 28.4861 82.1363C32.6377 83.9195 37.205 84.9057 42.0002 84.9057C46.7955 84.9057 51.3628 83.9195 55.5146 82.1364C72.7593 74.7307 78.7012 52.9954 67.9566 37.4802Z" fill="#AB4D74"/>
</g>
<path d="M44.0805 64.4974C44.0805 63.3774 43.6805 62.4374 42.8805 61.6774C42.1205 60.8774 41.2005 60.4774 40.1205 60.4774C39.0805 60.4774 38.1405 60.8574 37.3005 61.6174C36.5005 62.3774 36.1005 63.3374 36.1005 64.4974C36.1005 65.6174 36.4805 66.5774 37.2405 67.3774C38.0405 68.1374 39.0005 68.5174 40.1205 68.5174C41.2805 68.5174 42.2205 68.1174 42.9405 67.3174C43.7005 66.4774 44.0805 65.5374 44.0805 64.4974ZM31.3605 42.1774C30.6405 42.1774 29.9405 41.8574 29.2605 41.2174C28.6205 40.5774 28.3005 39.6774 28.3005 38.5174C28.3005 36.7974 28.6605 35.2774 29.3805 33.9574C30.1405 32.6374 31.1405 31.5374 32.3805 30.6574C33.6605 29.7774 35.1005 29.1174 36.7005 28.6774C38.3005 28.2374 39.9805 28.0174 41.7405 28.0174C43.9005 28.0174 45.8205 28.2974 47.5005 28.8574C49.2205 29.3774 50.6605 30.0974 51.8205 31.0174C53.0205 31.9374 53.9405 32.9974 54.5805 34.1974C55.2205 35.3974 55.5405 36.6574 55.5405 37.9774C55.5405 39.8174 54.9005 41.5974 53.6205 43.3174C52.3805 44.9974 50.4405 46.6374 47.8005 48.2374C46.9605 48.7574 46.1205 49.2774 45.2805 49.7974C44.4805 50.2774 43.7605 50.8774 43.1205 51.5974C42.4805 52.3174 41.9605 53.2174 41.5605 54.2974C41.1605 55.3374 40.9605 56.6574 40.9605 58.2574H39.1005C39.1005 56.1374 39.3205 54.3374 39.7605 52.8574C40.2405 51.3774 40.8205 50.0974 41.5005 49.0174C42.2205 47.9374 42.9805 46.9974 43.7805 46.1974C44.5805 45.3974 45.3205 44.5974 46.0005 43.7974C46.7205 42.9974 47.3005 42.1374 47.7405 41.2174C48.2205 40.2974 48.4605 39.1774 48.4605 37.8574C48.4605 36.8174 48.2205 35.8574 47.7405 34.9774C47.3005 34.0574 46.6805 33.2774 45.8805 32.6374C45.0805 31.9574 44.1605 31.4374 43.1205 31.0774C42.0805 30.6774 40.9805 30.4774 39.8205 30.4774C38.6205 30.4774 37.4405 30.6574 36.2805 31.0174C35.1605 31.3374 34.1605 31.8174 33.2805 32.4574C32.4005 33.0974 31.7005 33.8974 31.1805 34.8574C30.6605 35.7774 30.4005 36.8174 30.4005 37.9774C30.7605 37.7374 31.1605 37.6174 31.6005 37.6174C32.2405 37.6174 32.8005 37.8174 33.2805 38.2174C33.7605 38.6174 34.0005 39.1374 34.0005 39.7774C34.0005 40.4974 33.7205 41.0774 33.1605 41.5174C32.6405 41.9574 32.0405 42.1774 31.3605 42.1774Z" fill="white"/>
</g>
<defs>
<filter id="filter0_d_439_1091" x="10.6597" y="0" width="70.6812" height="92.9058" filterUnits="userSpaceOnUse" color-interpolation-filters="sRGB">
<feFlood flood-opacity="0" result="BackgroundImageFix"/>
<feColorMatrix in="SourceAlpha" type="matrix" values="0 0 0 0 0 0 0 0 0 0 0 0 0 0 0 0 0 0 127 0" result="hardAlpha"/>
<feOffset dx="4" dy="4"/>
<feGaussianBlur stdDeviation="2"/>
<feComposite in2="hardAlpha" operator="out"/>
<feColorMatrix type="matrix" values="0 0 0 0 0 0 0 0 0 0 0 0 0 0 0 0 0 0 0.5 0"/>
<feBlend mode="normal" in2="BackgroundImageFix" result="effect1_dropShadow_439_1091"/>
<feBlend mode="normal" in="SourceGraphic" in2="effect1_dropShadow_439_1091" result="shape"/>
</filter>
<clipPath id="clip0_439_1091">
<rect width="84" height="90" fill="white"/>
</clipPath>
</defs>
</svg>
